<svg width="22" height="22" viewBox="0 0 22 22" fill="none" xmlns="http://www.w3.org/2000/svg">
<path d="M11 21C16.523 21 21 16.523 21 11C21 5.477 16.523 1 11 1C5.477 1 1 5.477 1 11C1 16.523 5.477 21 11 21Z" stroke="#BCD0DC" stroke-width="1.5" stroke-linecap="round" stroke-linejoin="round"/>
<path d="M13.333 18V16.137C13.358 15.827 13.315 15.517 13.207 15.224C13.0983 14.9308 12.9278 14.6644 12.707 14.443C14.8 14.216 17 13.443 17 9.89899C16.9981 8.98804 16.6391 8.11417 16 7.46499C16.3042 6.6731 16.2826 5.79303 15.94 5.01699C15.94 5.01699 15.153 4.78999 13.333 5.97799C11.8038 5.57485 10.1962 5.57485 8.66702 5.97799C6.84702 4.78999 6.06002 5.01799 6.06002 5.01799C5.71799 5.79345 5.69642 6.67269 6.00002 7.46399C5.35653 8.11797 4.99716 8.99951 5.00002 9.91699C5.00002 13.436 7.20002 14.208 9.29302 14.461C9.07467 14.6805 8.90558 14.944 8.79702 15.234C8.68924 15.5218 8.6449 15.8295 8.66702 16.136V18" stroke="#BCD0DC" stroke-width="1.5" stroke-linecap="round" stroke-linejoin="round"/>
<path d="M8.667 16.702C6.667 17.333 5 16.702 4 14.754" stroke="#BCD0DC" stroke-width="1.5" stroke-linecap="round" stroke-linejoin="round"/>
</svg>
